<?xml version="1.0" encoding="UTF-8" standalone="no"?>
<!-- Generator: Adobe Illustrator 19.0.0, SVG Export Plug-In . SVG Version: 6.00 Build 0)  -->

<svg
   xmlns:dc="http://purl.org/dc/elements/1.1/"
   xmlns:cc="http://creativecommons.org/ns#"
   xmlns:rdf="http://www.w3.org/1999/02/22-rdf-syntax-ns#"
   xmlns:svg="http://www.w3.org/2000/svg"
   xmlns="http://www.w3.org/2000/svg"
   xmlns:sodipodi="http://sodipodi.sourceforge.net/DTD/sodipodi-0.dtd"
   xmlns:inkscape="http://www.inkscape.org/namespaces/inkscape"
   version="1.1"
   id="Layer_1"
   x="0px"
   y="0px"
   viewBox="0 0 512 512"
   style="enable-background:new 0 0 512 512;"
   xml:space="preserve"
   width="512px"
   height="512px"
   inkscape:version="0.92.2 (5c3e80d, 2017-08-06)"
   sodipodi:docname="hwicon.svg"><metadata
     id="metadata3434"><rdf:RDF><cc:Work
         rdf:about=""><dc:format>image/svg+xml</dc:format><dc:type
           rdf:resource="http://purl.org/dc/dcmitype/StillImage" /><dc:title></dc:title></cc:Work></rdf:RDF></metadata><defs
     id="defs3432" /><sodipodi:namedview
     pagecolor="#ffffff"
     bordercolor="#666666"
     borderopacity="1"
     objecttolerance="10"
     gridtolerance="10"
     guidetolerance="10"
     inkscape:pageopacity="0"
     inkscape:pageshadow="2"
     inkscape:window-width="1920"
     inkscape:window-height="1057"
     id="namedview3430"
     showgrid="false"
     inkscape:zoom="1.5934753"
     inkscape:cx="154.02164"
     inkscape:cy="256"
     inkscape:window-x="1912"
     inkscape:window-y="-8"
     inkscape:window-maximized="1"
     inkscape:current-layer="g3388" /><g
     id="g3388"
     transform="matrix(0.71318593,0,0,0.71318593,72.169228,70.521268)"><path
       style="fill:#ffffff;fill-opacity:1;stroke-width:20.31344795"
       inkscape:connector-curvature="0"
       d="m 273.66081,373.48341 c 57.07205,0 103.73854,-43.63001 103.73854,-96.95542 V 77.769251 c 0,-53.325606 -46.66649,-96.955623 -103.73854,-96.955623 -57.07204,0 -103.73833,43.630017 -103.73833,96.955623 V 276.52799 c 0,53.32541 46.66629,96.95542 103.73833,96.95542 z m 125.03931,-196.3349 v 99.37948 c 0,64.16514 -56.0931,116.34658 -125.03931,116.34658 -68.9462,0 -125.01806,-52.18144 -125.01806,-116.34658 V 177.14851 H 84.824833 v 99.37948 c 0,86.15466 67.967467,157.68829 156.873977,171.82438 v 41.47762 h -71.75507 v 58.17331 h 207.45561 v -58.17331 h -71.84031 v -41.47762 c 88.97028,-14.13609 156.93755,-85.66972 156.93755,-171.82438 v -99.37948 z"
       id="path20" /></g><g
     id="g3400" /><g
     id="g3402" /><g
     id="g3404" /><g
     id="g3406" /><g
     id="g3408" /><g
     id="g3410" /><g
     id="g3412" /><g
     id="g3414" /><g
     id="g3416" /><g
     id="g3418" /><g
     id="g3420" /><g
     id="g3422" /><g
     id="g3424" /><g
     id="g3426" /><g
     id="g3428" /></svg>